<svg xmlns="http://www.w3.org/2000/svg" width="32" height="32" viewBox="0 0 32 32">
  <defs>
    <style>
      .cls-1 {
        fill: #95e1d3;
        fill-rule: evenodd;
      }
    </style>
  </defs>
  <path id="LINE_GRAPH" data-name="LINE GRAPH" class="cls-1" d="M821.5,2341h-29a1.5,1.5,0,0,1-1.5-1.5v-29a1.5,1.5,0,0,1,1.5-1.5h29a1.5,1.5,0,0,1,1.5,1.5v29A1.5,1.5,0,0,1,821.5,2341Zm-1.5-29H794v26h26v-26Zm-23.785,13.24h0l4-2.5h0a1.524,1.524,0,0,1,1.625.03h0.006l6.631,4.42,7.638-5.4a1.5,1.5,0,1,1,1.763,2.43h0l-8.5,6h0a1.486,1.486,0,0,1-.878.29,1.505,1.505,0,0,1-.861-0.28l-6.657-4.43-3.135,1.96a1.533,1.533,0,0,1-.847.26A1.5,1.5,0,0,1,796.215,2325.24Z" transform="translate(-791 -2309)"/>
</svg>
