<svg xmlns="http://www.w3.org/2000/svg" width="30" height="30" viewBox="0 0 30 30">
  <defs>
    <style>
      .cls-1 {
        fill: #95e1d3;
        fill-rule: evenodd;
      }
    </style>
  </defs>
  <path id="PICTURE" class="cls-1" d="M1006,3959a1.505,1.505,0,0,1-1,1.41v1.68a1.5,1.5,0,1,1-1.91,1.91h-1.68a1.493,1.493,0,0,1-2.818,0h-1.684a1.491,1.491,0,0,1-2.816,0h-1.684a1.491,1.491,0,0,1-2.816,0h-1.684a1.491,1.491,0,0,1-2.816,0h-1.684a1.491,1.491,0,0,1-2.816,0h-1.684a1.5,1.5,0,1,1-1.908-1.91v-1.68a1.494,1.494,0,0,1,0-2.82v-1.68a1.494,1.494,0,0,1,0-2.82v-1.68a1.494,1.494,0,0,1,0-2.82v-1.68a1.494,1.494,0,0,1,0-2.82v-1.68a1.494,1.494,0,0,1,0-2.82v-1.68a1.5,1.5,0,1,1,1.908-1.91h1.684a1.491,1.491,0,0,1,2.816,0h1.684a1.491,1.491,0,0,1,2.816,0h1.684a1.491,1.491,0,0,1,2.816,0h1.684a1.491,1.491,0,0,1,2.816,0h1.684a1.493,1.493,0,0,1,2.818,0h1.68a1.5,1.5,0,1,1,1.91,1.91v1.68a1.494,1.494,0,0,1,0,2.82v1.68a1.494,1.494,0,0,1,0,2.82v1.68a1.494,1.494,0,0,1,0,2.82v1.68a1.494,1.494,0,0,1,0,2.82v1.68A1.505,1.505,0,0,1,1006,3959Zm-4-20H980v22h22v-22Zm-13,16,7-8.5,4.5,7v6h-19l6-6Zm-3-7a3,3,0,1,1,3-3A3,3,0,0,1,986,3948Z" transform="translate(-976 -3935)"/>
</svg>
