<svg xmlns="http://www.w3.org/2000/svg" width="63" height="61" viewBox="0 0 63 61">
  <defs>
    <style>
      .cls-1 {
        fill: #95e1d3;
        fill-rule: evenodd;
      }
    </style>
  </defs>
  <path id="SPEECH_4" data-name="SPEECH 4" class="cls-1" d="M574,4571h-2v5h0a2.979,2.979,0,0,1-.061.6,2.9,2.9,0,0,1-.122.4c-0.02.05-.03,0.11-0.053,0.17a2.746,2.746,0,0,1-.176.32c-0.035.06-.061,0.13-0.1,0.19a3.65,3.65,0,0,1-.334.4c-0.012.01-.02,0.03-0.033,0.04a3,3,0,0,1-2.084.87c-0.012,0-.024.01-0.037,0.01h0a3,3,0,0,1-2.121-.88l-7.122-7.12H532a3,3,0,0,1-3-3v-30a3,3,0,0,1,3-3h42a3,3,0,0,1,3,3v30A3,3,0,0,1,574,4571Zm-15.485,3,6.326,6.32h0.008A6,6,0,0,0,569,4582v2a3,3,0,0,1-3,3H534.243l-8.122,8.12A3,3,0,0,1,524,4596h0c-0.013,0-.024-0.01-0.037-0.01a3,3,0,0,1-2.084-.87c-0.013-.01-0.021-0.03-0.033-0.04a2.99,2.99,0,0,1-.334-0.41,1.69,1.69,0,0,1-.1-0.18,3.64,3.64,0,0,1-.177-0.32c-0.023-.06-0.033-0.12-0.053-0.17a2.627,2.627,0,0,1-.183-1h0v-6h-4a3,3,0,0,1-3-3v-34h0a3,3,0,0,1,3-3h9v21a6,6,0,0,0,6,6h26.515Z" transform="translate(-514 -4535)"/>
</svg>
