<svg xmlns="http://www.w3.org/2000/svg" width="31.938" height="22.53" viewBox="0 0 31.938 22.53">
  <defs>
    <style>
      .cls-1 {
        fill: #fff;
        fill-rule: evenodd;
      }
    </style>
  </defs>
  <path id="USERS" class="cls-1" d="M555.95,1505.5v0.01a1,1,0,0,1-1,.99h-7.412a1.248,1.248,0,0,0,.972-1.21h0s0-4.5-3.3-6.14a5.822,5.822,0,0,0-2.206-.73l0.02-1.95a3.672,3.672,0,0,1-1.011-2.43c-0.482.13-.641-0.57-0.67-1.02-0.026-.43-0.279-1.78.31-1.66a11.832,11.832,0,0,1-.165-2.14,3.885,3.885,0,0,1,3.861-3.21c2.649,0.11,3.7,1.69,3.845,3.2a11.926,11.926,0,0,1-.172,2.15c0.589-.12.333,1.23,0.3,1.66-0.025.45-.188,1.15-0.669,1.01a3.675,3.675,0,0,1-1.012,2.43l0.018,1.94s0.488,0.28,2.546,1.13,1.412,0.22,3.088,1.05c2.649,1.31,2.649,4.92,2.649,4.92h0Zm-14.927-6.66c2.262,0.94,1.552.24,3.395,1.15,2.912,1.44,2.912,5.42,2.912,5.42h0a1.093,1.093,0,0,1-1.093,1.09H525.093a1.093,1.093,0,0,1-1.093-1.09h0s0-3.98,2.912-5.42c1.843-.91,1.133-0.17,3.4-1.11a25.01,25.01,0,0,0,2.8-1.26l0.021-2.15a4.04,4.04,0,0,1-1.11-2.67c-0.53.15-.705-0.62-0.736-1.11s-0.307-1.96.339-1.83a13.029,13.029,0,0,1-.18-2.36,4.272,4.272,0,0,1,4.244-3.52c2.911,0.12,4.065,1.86,4.226,3.52a13.189,13.189,0,0,1-.189,2.36c0.647-.13.366,1.35,0.334,1.82-0.028.5-.207,1.27-0.736,1.11a4,4,0,0,1-1.111,2.67l0.019,2.14A30.239,30.239,0,0,0,541.023,1498.84Z" transform="translate(-524 -1483.97)"/>
</svg>
